<mxfile host="app.diagrams.net" modified="2022-06-12T09:48:34.544Z" agent="5.0 (Windows NT 6.1; Win64; x64) AppleWebKit/537.36 (KHTML, like Gecko) Chrome/102.0.5005.63 Safari/537.36" etag="L2BMPzZ-bVkGqDqPGAqg" version="20.0.0" type="github">
  <diagram name="Page-1" id="13e1069c-82ec-6db2-03f1-153e76fe0fe0">
    <mxGraphModel dx="868" dy="468" grid="1" gridSize="10" guides="1" tooltips="1" connect="1" arrows="1" fold="1" page="1" pageScale="1" pageWidth="1100" pageHeight="850" background="none" math="0" shadow="0">
      <root>
        <mxCell id="0" />
        <mxCell id="1" parent="0" />
        <mxCell id="qw9EHCWrlxvRK0lsngOA-3" value="" style="rounded=1;whiteSpace=wrap;html=1;fontFamily=Verdana;fillColor=default;gradientColor=#DEDEDE;strokeColor=#666666;" vertex="1" parent="1">
          <mxGeometry x="70" y="40" width="800" height="430" as="geometry" />
        </mxCell>
      </root>
    </mxGraphModel>
  </diagram>
</mxfile>
